<svg xmlns="http://www.w3.org/2000/svg" width="32" height="32" viewBox="0 0 32 32">
<defs>
<clipPath id="eghsxdyixa">
<path fill="#00a8d6" d="M0 0H32V32H0z"/>
</clipPath>
</defs>
<g clip-path="url(#eghsxdyixa)">
<path fill="#fff" d="M-13.04.077a.262.262 0 0 1 .292-.054l.037.022.047.041 1.132 1.133a.262.262 0 0 1 .054.292l-.022.037-.032.037-8.427 8.466 8.427 8.466a.262.262 0 0 1 .054.292l-.022.037-.032.037-1.142 1.142a.262.262 0 0 1-.292.054l-.034-.021-.037-.032-9.791-9.791a.262.262 0 0 1-.054-.293l.022-.037.032-.037z" transform="translate(32.908 5.5)"/>
</g>
</svg>
