<svg xmlns="http://www.w3.org/2000/svg" width="32" height="32" viewBox="0 0 32 32">
    <defs>
        <clipPath id="rn7utdel6a">
            <path fill="#00a8d6" d="M0 0H32V32H0z"/>
        </clipPath>
    </defs>
    <g clip-path="url(#rn7utdel6a)">
        <path fill="#f5783f" d="M10581.942 2168.081l-.037-.024-.037-.032-8.641-8.641-8.643 8.641-.037.032-.037.024a.265.265 0 0 1-.292-.056l-1.143-1.142-.029-.037-.023-.037a.264.264 0 0 1 .053-.292l8.428-8.465-8.428-8.465-.031-.04-.021-.035a.264.264 0 0 1 .053-.292l1.135-1.134.045-.04.037-.024a.264.264 0 0 1 .292.056l8.643 8.641 8.641-8.641a.265.265 0 0 1 .292-.056l.037.024.048.04 1.132 1.134a.263.263 0 0 1 .056.292l-.023.035-.032.04-8.425 8.465 8.425 8.465a.258.258 0 0 1 .053.292l-.021.037-.032.037-1.143 1.142a.268.268 0 0 1-.189.078.241.241 0 0 1-.106-.022z" transform="translate(-10557 -2142.5)"/>
    </g>
</svg>
