<svg xmlns="http://www.w3.org/2000/svg" width="54" height="54" viewBox="0 0 54 54">
<defs>
<style>
.cls-3{stroke:none}
</style>
</defs>
<g id="Component_121_83" transform="translate(0 0)">
<g id="Oval_3" fill="#d31027" stroke="#d31027" stroke-miterlimit="10" transform="translate(0 0)">
<circle cx="27" cy="27" r="27" class="cls-3"/>
<circle cx="27" cy="27" r="26.5" fill="none"/>
</g>
<g id="icon_basic_video-call" transform="translate(14 13)">
<g id="Path" fill="#fff" stroke-miterlimit="10">
<path d="M1.882 19.58c-.207 0-.384-.14-.43-.342L.51 15.16c-.046-.21.063-.425.262-.512l4.39-1.881c.055-.024.113-.035.172-.035.133 0 .258.059.342.162l1.946 2.377.247.302.353-.166c3.15-1.486 5.703-4.039 7.189-7.189l.166-.353-.302-.247-2.377-1.945c-.152-.124-.204-.335-.127-.515L14.653.766c.07-.16.23-.266.409-.266.033 0 .066.004.1.011l4.076.941c.202.047.342.223.342.43 0 4.73-1.841 9.176-5.186 12.518-3.342 3.34-7.786 5.18-12.512 5.18z" class="cls-3" transform="translate(13.387 28.144) rotate(-135)"/>
<path d="M1.928 19.08c4.576-.012 8.876-1.798 12.113-5.033 3.239-3.237 5.027-7.54 5.04-12.118l-3.988-.92-1.845 4.304 2.344 1.918.604.494-.333.706c-1.535 3.255-4.173 5.893-7.428 7.428l-.706.333-.494-.604-1.918-2.344-4.31 1.847.921 3.99m-.046 1c-.439 0-.819-.303-.917-.73l-.942-4.079c-.1-.446.13-.9.55-1.082l4.392-1.883c.12-.05.245-.075.37-.075.276 0 .546.122.729.346l1.945 2.376c3.053-1.44 5.51-3.896 6.95-6.949L12.581 6.06c-.326-.265-.436-.713-.271-1.099L14.193.57c.154-.351.499-.569.869-.569.07 0 .14.008.21.024l4.079.941c.427.099.73.479.73.917 0 10.06-8.154 18.198-18.199 18.198z" transform="translate(13.387 28.144) rotate(-135)"/>
</g>
</g>
</g>
</svg>
