<svg xmlns="http://www.w3.org/2000/svg" id="Component_121_82" width="54" height="54" viewBox="0 0 54 54">
<defs>
<clipPath id="clip-path">
<path id="Rectangle_51" d="M0 0H29V29H0z" class="cls-1"/>
</clipPath>
<style>
.cls-1{fill:#fff}
</style>
</defs>
<g id="Oval_3" fill="none" stroke="#fff" stroke-miterlimit="10">
<circle cx="27" cy="27" r="27" stroke="none"/>
<circle cx="27" cy="27" r="26.5"/>
</g>
<g id="icon" transform="translate(13 13)">
<g id="Mask_Group_10" clip-path="url(#clip-path)">
<path id="Union_97" d="M1.722 23h-.091A1.707 1.707 0 0 1 0 21.314v-1.083a4.8 4.8 0 0 1 1.508-3.366A5.036 5.036 0 0 1 5 15.477a3.094 3.094 0 0 1 .88.135c.037.01.079.02.118.034l.346.1.247.074a6.067 6.067 0 0 0 1.8.246 6.309 6.309 0 0 0 1.993-.3l.532-.162a3.184 3.184 0 0 1 .874-.132 4.956 4.956 0 0 1 5 4.89v1.039A1.708 1.708 0 0 1 15.078 23zM3.035 9.453A5.311 5.311 0 0 1 8.4 4.209a5.309 5.309 0 0 1 5.365 5.244A5.308 5.308 0 0 1 8.4 14.694a5.311 5.311 0 0 1-5.365-5.241zm15.075-.6a.717.717 0 0 1-.722-.705V5.484h-2.72a.716.716 0 0 1-.723-.7v-.7a.716.716 0 0 1 .723-.7h2.721V.7a.717.717 0 0 1 .721-.7h.722a.715.715 0 0 1 .722.7v2.669h2.725a.716.716 0 0 1 .723.7v.7a.716.716 0 0 1-.723.7h-2.725v2.676a.715.715 0 0 1-.722.705z" class="cls-1" transform="translate(2.6 2.999)"/>
</g>
</g>
</svg>