<svg xmlns="http://www.w3.org/2000/svg" width="54" height="54" viewBox="0 0 54 54">
<defs>
<clipPath id="1yym561lra">
<path fill="#fff" stroke="#707070" d="M0 0H30.121V30.121H0z"/>
</clipPath>
</defs>
<circle cx="27" cy="27" r="27" fill="#fff"/>
<g clip-path="url(#1yym561lra)" transform="translate(12.132 12.132)">
<g>
<path fill="#25272a" d="M4.616 26.772a.461.461 0 1 1 0-.923h2.308v-2.332A7.387 7.387 0 0 1 .871 19.63l-.4-.9A7.334 7.334 0 0 1 0 16.155v-2.769a.461.461 0 1 1 .923 0v2.769A6.443 6.443 0 0 0 1.195 18l.367.938a6.457 6.457 0 0 0 12.286-2.784v-2.768a.461.461 0 1 1 .923 0v2.769a7.388 7.388 0 0 1-6.924 7.362v2.332h2.308a.461.461 0 1 1 0 .923zm-1.548-7.956l.026-.026a3.17 3.17 0 0 1-.53-1.2 14.941 14.941 0 0 1-.224-2.121l-.033.033V5.077a5.077 5.077 0 0 1 10.155 0v.271l-.027.027V9.45l.027-.027v6.733a5.072 5.072 0 0 1-9.394 2.661z" transform="translate(-14554.308 -14259.296) translate(14561.982 14261.808)"/>
</g>
</g>
</svg>
