<svg xmlns="http://www.w3.org/2000/svg" width="24" height="24" viewBox="0 0 24 24">
    <defs>
        <clipPath id="9tfcqh7paa">
            <path fill="#fff" stroke="#707070" d="M0 0H24V24H0z" transform="translate(14512 15125)"/>
        </clipPath>
    </defs>
    <g clip-path="url(#9tfcqh7paa)" transform="translate(-14512 -15125)">
        <path fill="#f5783f" d="M5.362 16a.277.277 0 1 1 0-.552h1.489v-1.393a4.807 4.807 0 0 1-3.9-2.324L.509 13.987a.305.305 0 0 1-.21.081.307.307 0 0 1-.211-.081.262.262 0 0 1 0-.39l2.6-2.407a4.078 4.078 0 0 1-.3-1.536V8a.3.3 0 0 1 .6 0v1.655a3.611 3.611 0 0 0 .174 1.1l10.33-9.572a.315.315 0 0 1 .421 0 .261.261 0 0 1 0 .391L3.391 11.318a4.207 4.207 0 0 0 3.758 2.2 4.028 4.028 0 0 0 4.17-3.862V8a.3.3 0 0 1 .6 0v1.655a4.576 4.576 0 0 1-4.467 4.4v1.393h1.485a.277.277 0 1 1 0 .552zm-1-4.754l6.061-5.615v4.024a3.165 3.165 0 0 1-3.276 3.034 3.336 3.336 0 0 1-2.783-1.443zm-.49-8.212A3.166 3.166 0 0 1 7.149 0a3.165 3.165 0 0 1 3.276 3.034v.161l-6.553 6.07z" transform="translate(14517 15129)"/>
    </g>
</svg>
