<svg xmlns="http://www.w3.org/2000/svg" width="24" height="24" viewBox="0 0 24 24">
    <defs>
        <clipPath id="5id4uc2cia">
            <path fill="#fff" d="M0 0H24V24H0z"/>
        </clipPath>
    </defs>
    <g clip-path="url(#5id4uc2cia)">
        <path fill="#f5783f" d="M1.2 16h-.066A1.184 1.184 0 0 1 0 14.827v-.752a3.34 3.34 0 0 1 1.05-2.342 3.5 3.5 0 0 1 2.429-.965 2.165 2.165 0 0 1 .613.093.746.746 0 0 1 .084.023l.241.073.169.05a4.287 4.287 0 0 0 1.258.171 4.365 4.365 0 0 0 1.384-.208l.373-.112a2.183 2.183 0 0 1 .609-.091 3.442 3.442 0 0 1 3.477 3.4v.726A1.185 1.185 0 0 1 10.491 16zm-.068-1.833v.728h9.428V14.088a2.258 2.258 0 0 0-.713-1.568 2.369 2.369 0 0 0-1.632-.646 1.3 1.3 0 0 0-.362.068.526.526 0 0 0-.062.019l-.234.07-.178.052a5.5 5.5 0 0 1-1.53.2 5.526 5.526 0 0 1-1.527-.2c-.086-.023-.289-.085-.4-.118l-.054-.015-.091-.027a1.111 1.111 0 0 0-.295-.048 2.323 2.323 0 0 0-2.349 2.292zm.98-7.593a3.7 3.7 0 0 1 3.734-3.648 3.7 3.7 0 0 1 3.733 3.648 3.7 3.7 0 0 1-3.733 3.648 3.7 3.7 0 0 1-3.733-3.648zm1.131 0a2.6 2.6 0 0 0 5.2 0 2.6 2.6 0 0 0-5.2 0zm9.357-.416a.5.5 0 0 1-.5-.492V3.814h-1.9a.5.5 0 0 1-.5-.49v-.49a.5.5 0 0 1 .5-.492h1.9V.49a.5.5 0 0 1 .5-.49h.5a.5.5 0 0 1 .5.49v1.852h1.9a.5.5 0 0 1 .5.492v.49a.5.5 0 0 1-.5.49h-1.9v1.852a.5.5 0 0 1-.5.492z" transform="translate(4 4)"/>
    </g>
</svg>
