<svg xmlns="http://www.w3.org/2000/svg" width="54" height="54" viewBox="0 0 54 54">
    <defs>
        <clipPath id="1xlyf5jn5a">
            <path fill="#fff" stroke="#707070" d="M0 0H30.172V30.172H0z"/>
        </clipPath>
    </defs>
    <g fill="none" stroke="#fff" stroke-miterlimit="10">
        <circle cx="27" cy="27" r="27" stroke="none"/>
        <circle cx="27" cy="27" r="26.5"/>
    </g>
    <g clip-path="url(#1xlyf5jn5a)" transform="translate(11.414 11.914)">
        <path fill="#fff" d="M18.424 21.543a.856.856 0 0 1 0-1.207 13.349 13.349 0 0 0 0-18.877.854.854 0 0 1 1.209-1.208 15.056 15.056 0 0 1 0 21.292.846.846 0 0 1-.6.248.857.857 0 0 1-.609-.248zM9.7 19.341l-6.343-4.706H0V7.158h3.357l6.486-4.839s1.023-.773 1.023.017v16.973c0 .343-.135.457-.312.457a1.874 1.874 0 0 1-.854-.425zm5.885-.553a.859.859 0 0 1 0-1.208 9.444 9.444 0 0 0 0-13.362.855.855 0 0 1 1.215-1.209 11.161 11.161 0 0 1 0 15.779.864.864 0 0 1-.6.248.873.873 0 0 1-.613-.248zm-2.311-2.727a.851.851 0 0 1 0-1.211 5.626 5.626 0 0 0 0-7.946.853.853 0 0 1 1.2-1.207 7.332 7.332 0 0 1 0 10.364.852.852 0 0 1-.6.25.842.842 0 0 1-.598-.249z" transform="translate(3.353 4.19)"/>
    </g>
</svg>
