<svg xmlns="http://www.w3.org/2000/svg" width="24" height="24" viewBox="0 0 24 24">
    <path fill="rgba(255,255,255,0)" d="M0 0H24V24H0z"/>
    <g fill="none" stroke-miterlimit="10">
        <path d="M12.756 14H8.664a1.244 1.244 0 0 1-1.242-1.175V8.665A1.243 1.243 0 0 1 8.6 7.423h4.159A1.243 1.243 0 0 1 14 8.6v4.159A1.244 1.244 0 0 1 12.824 14zm-7.42 0H1.244A1.243 1.243 0 0 1 0 12.825V8.665a1.243 1.243 0 0 1 1.175-1.242H5.335A1.244 1.244 0 0 1 6.577 8.6v4.159A1.245 1.245 0 0 1 5.4 14zm7.421-7.421H8.665A1.243 1.243 0 0 1 7.423 5.4V1.244A1.243 1.243 0 0 1 8.6 0h4.159A1.244 1.244 0 0 1 14 1.175V5.335a1.245 1.245 0 0 1-1.176 1.242zm-7.421 0H1.244A1.243 1.243 0 0 1 0 5.4V1.244A1.243 1.243 0 0 1 1.175 0H5.335a1.244 1.244 0 0 1 1.242 1.175V5.335A1.245 1.245 0 0 1 5.4 6.577z" transform="translate(5 5)"/>
        <path fill="#f5783f" d="M12.743 13h.035c.125-.012.222-.117.222-.243V8.678l-.001-.036c-.011-.124-.116-.22-.243-.22H8.642c-.125.011-.222.116-.222.243v4.079l.001.035c.012.125.117.221.243.221h4.079m-7.421 0h.035c.125-.012.222-.117.222-.243V8.643c-.012-.125-.117-.222-.244-.222H1.257l-.036.001c-.125.011-.221.116-.221.243v4.079l.001.036c.01.124.116.22.243.22h4.078m7.421-7.421h.035c.125-.012.222-.117.222-.244V1.222c-.012-.125-.117-.222-.243-.222H8.678l-.036.001c-.124.01-.22.116-.22.243v4.114c.011.125.116.221.243.221h4.078m-7.421 0h.035c.125-.012.222-.117.222-.244V1.222C5.566 1.097 5.461 1 5.334 1H1.257l-.036.001c-.125.01-.221.116-.221.243v4.078l.001.036c.01.125.116.221.243.221h4.078M12.756 14H8.664c-.66 0-1.205-.516-1.242-1.175l-.001-.068V8.665c0-.66.516-1.206 1.176-1.242l.067-.002h4.092c.66 0 1.206.517 1.242 1.176l.002.068v4.092c0 .66-.517 1.205-1.176 1.242l-.068.001zm-7.42 0H1.243c-.661 0-1.207-.516-1.242-1.175L0 12.757V8.665c0-.66.516-1.206 1.175-1.242l.069-.002h4.091c.66 0 1.206.517 1.242 1.176l.002.068v4.092c0 .66-.517 1.205-1.176 1.242L5.335 14zm7.42-7.421h-4.09c-.662 0-1.207-.516-1.243-1.175l-.002-.069V1.244c0-.661.517-1.207 1.176-1.242L8.665 0h4.092c.66 0 1.205.516 1.242 1.175l.001.069v4.091c0 .66-.516 1.206-1.176 1.242l-.067.002zm-7.42 0H1.243c-.661 0-1.207-.516-1.242-1.175L0 5.335V1.244C0 .583.516.037 1.175.002L1.244 0h4.091c.66 0 1.206.516 1.242 1.175l.002.069v4.091c0 .66-.517 1.206-1.176 1.242l-.068.002z" transform="translate(5 5)"/>
    </g>
</svg>
